<?xml version="1.0" standalone="no"?>
<!DOCTYPE svg PUBLIC "-//W3C//DTD SVG 20010904//EN"
 "http://www.w3.org/TR/2001/REC-SVG-20010904/DTD/svg10.dtd">
<svg version="1.0" xmlns="http://www.w3.org/2000/svg"
 width="512.000000pt" height="512.000000pt" viewBox="0 0 512.000000 512.000000"
 preserveAspectRatio="xMidYMid meet">
<metadata>
Created by potrace 1.14, written by Peter Selinger 2001-2017
</metadata>
<g transform="translate(0.000000,512.000000) scale(0.100000,-0.100000)"
fill="#000000" stroke="none">
<path d="M4200 4790 c-36 -10 -202 -55 -370 -100 -168 -46 -325 -89 -350 -95
-25 -7 -207 -56 -405 -108 -198 -53 -452 -120 -565 -151 -502 -135 -847 -227
-865 -231 -31 -7 -532 -142 -650 -176 -77 -21 -149 -41 -160 -43 -51 -11 -292
-79 -308 -88 -24 -13 -46 -65 -41 -98 3 -14 29 -117 59 -229 l55 -203 0 -1399
c0 -1241 2 -1404 15 -1437 21 -49 52 -81 100 -103 38 -18 113 -19 1901 -19
2021 0 1895 -3 1957 54 15 14 37 45 47 68 19 42 19 82 19 1393 -1 1468 2 1398
-55 1424 -18 8 -545 11 -1997 12 l-1972 0 85 23 c47 13 157 42 245 66 88 23
324 87 525 142 201 54 374 101 385 103 11 2 54 13 95 24 41 12 154 41 250 67
96 25 274 73 395 106 351 96 527 143 810 216 156 41 746 199 965 260 64 17
110 58 110 97 0 15 -14 79 -31 143 -17 65 -35 134 -40 154 -17 73 -41 119 -70
133 -35 19 -58 18 -139 -5z"/>
</g>
</svg>
